<svg width="495" height="96" viewBox="0 0 495 96" fill="none" xmlns="http://www.w3.org/2000/svg">
<g filter="url(#filter0_d_1_21)">
<rect x="4" width="487" height="88" rx="22" fill="#2DC7ED"/>
</g>
<path d="M70.123 30.8633V56H68.2773V30.8633H70.123ZM91.3223 37.543V56H89.9688L89.7578 53.6445C87.6367 55.2148 85.2695 56 82.6562 56C78.2969 56 76.1172 53.709 76.1172 49.127V37.543H77.9629V49.1797C77.9629 52.625 79.5566 54.3477 82.7441 54.3477C85.0762 54.3477 87.3203 53.5684 89.4766 52.0098V37.543H91.3223ZM110.324 55.4727C108.801 55.8242 107.16 56 105.402 56C99.1914 56 96.0859 52.8066 96.0859 46.4199C96.0859 40.502 99.1914 37.543 105.402 37.543C107.16 37.543 108.801 37.7188 110.324 38.0703V39.6523C108.684 39.3008 107.102 39.125 105.578 39.125C100.598 39.125 98.1074 41.5566 98.1074 46.4199C98.1074 51.752 100.598 54.418 105.578 54.418C107.102 54.418 108.684 54.2422 110.324 53.8906V55.4727ZM113.594 50.7793C113.594 47.1113 116.031 45.2773 120.906 45.2773C122.629 45.2773 124.469 45.3945 126.426 45.6289V43.3613C126.426 40.5371 124.65 39.125 121.1 39.125C119.201 39.125 117.256 39.418 115.264 40.0039V38.4219C117.256 37.8359 119.201 37.543 121.1 37.543C125.881 37.543 128.271 39.4531 128.271 43.2734V56H127.146L126.725 54.1719C124.416 55.3906 122.178 56 120.01 56C115.732 56 113.594 54.2598 113.594 50.7793ZM120.906 46.8594C117.262 46.8594 115.439 48.1484 115.439 50.7266C115.439 53.1875 116.963 54.418 120.01 54.418C122.26 54.418 124.398 53.8203 126.426 52.625V47.2109C124.469 46.9766 122.629 46.8594 120.906 46.8594ZM133.562 55.1211V53.3633C135.613 54.0664 137.629 54.418 139.609 54.418C143.488 54.418 145.428 53.1875 145.428 50.7266C145.428 48.7344 143.992 47.7383 141.121 47.7383H138.766C134.898 47.7383 132.965 46.0977 132.965 42.8164C132.965 39.3008 135.525 37.543 140.646 37.543C142.615 37.543 144.625 37.8359 146.676 38.4219V40.1797C144.625 39.4766 142.615 39.125 140.646 39.125C136.756 39.125 134.811 40.3555 134.811 42.8164C134.811 44.9258 136.129 45.9805 138.766 45.9805H141.121C145.223 45.9805 147.273 47.5625 147.273 50.7266C147.273 54.2422 144.719 56 139.609 56C137.629 56 135.613 55.707 133.562 55.1211ZM152.02 56V36.6465C152.02 32.1816 154.492 29.9492 159.438 29.9492C160.949 29.9492 162.32 30.1836 163.551 30.6523V32.2344C162.391 31.7656 161.014 31.5312 159.42 31.5312C155.717 31.5312 153.865 33.248 153.865 36.6816V37.543H160.809V39.125H153.865V56H152.02ZM166.1 53.293C167.963 53.9258 169.68 54.2422 171.25 54.2422C176.02 54.2422 178.404 51.5879 178.404 46.2793C178.404 41.5566 176.031 39.1953 171.285 39.1953C169.645 39.1953 167.916 39.3359 166.1 39.6172V53.293ZM164.254 38.2988C166.352 37.7949 168.707 37.543 171.32 37.543C177.238 37.543 180.197 40.4668 180.197 46.3145C180.197 52.7715 177.221 56 171.268 56C169.791 56 168.068 55.707 166.1 55.1211V62.6797H164.254V38.2988ZM184.961 56V37.543H186.279L186.508 39.8984C188.863 38.3281 191.172 37.543 193.434 37.543C197.922 37.543 200.166 39.4824 200.166 43.3613V56H198.32V43.3086C198.32 40.5664 196.662 39.1953 193.346 39.1953C191.131 39.1953 188.951 39.9746 186.807 41.5332V56H184.961ZM205.738 34.5547H207.039L207.373 37.543H212.91V39.125H207.531V50.7793C207.531 53.2051 208.422 54.418 210.203 54.418H212.91V56H210.238C207.238 56 205.738 54.3418 205.738 51.0254V34.5547ZM240.227 54.2773C240.227 56.1289 241.105 57.0547 242.863 57.0547C245.969 57.0547 247.521 53.5391 247.521 46.5078C247.521 37.0156 242.799 32.2695 233.354 32.2695C223.58 32.2695 218.693 37.0156 218.693 46.5078C218.693 56.2344 223.176 61.0977 232.141 61.0977V62.6797C221.945 62.6797 216.848 57.2891 216.848 46.5078C216.848 35.9609 222.262 30.6875 233.09 30.6875C243.941 30.6875 249.367 35.9609 249.367 46.5078C249.367 54.5938 247.158 58.6367 242.74 58.6367C239.834 58.6367 238.381 57.1484 238.381 54.1719C236.271 55.3906 234.133 56 231.965 56C227.805 56 225.725 54.2598 225.725 50.7793C225.725 47.1113 228.104 45.2773 232.861 45.2773C234.584 45.2773 236.424 45.3945 238.381 45.6289V43.3613C238.381 40.5371 236.605 39.125 233.055 39.125C231.156 39.125 229.211 39.418 227.219 40.0039V38.4219C229.211 37.8359 231.156 37.543 233.055 37.543C237.836 37.543 240.227 39.4531 240.227 43.2734V54.2773ZM232.861 46.8594C229.334 46.8594 227.57 48.1484 227.57 50.7266C227.57 53.1875 229.035 54.418 231.965 54.418C234.215 54.418 236.354 53.8203 238.381 52.625V47.2109C236.424 46.9766 234.584 46.8594 232.861 46.8594ZM268.387 39.6172C266.688 39.3359 265.018 39.1953 263.377 39.1953C258.396 39.1953 255.906 41.6738 255.906 46.6309C255.906 51.7051 258.232 54.2422 262.885 54.2422C264.572 54.2422 266.406 53.9258 268.387 53.293V39.6172ZM270.232 56C270.232 60.4531 267.52 62.6797 262.094 62.6797C259.82 62.6797 257.805 62.3867 256.047 61.8008V60.2188C257.84 60.8047 259.867 61.0977 262.129 61.0977C266.301 61.0977 268.387 59.3984 268.387 56V55.1211C266.301 55.707 264.461 56 262.867 56C257.031 56 254.113 52.8887 254.113 46.666C254.113 40.584 257.248 37.543 263.518 37.543C265.896 37.543 268.135 37.7949 270.232 38.2988V56ZM275.875 56V37.543H277.193L277.387 39.8633C279.273 38.3164 281.318 37.543 283.521 37.543C286.428 37.543 288.309 38.3867 289.164 40.0742C291.285 38.3867 293.436 37.543 295.615 37.543C299.74 37.543 301.803 39.5879 301.803 43.6777V56H299.957V43.6777C299.957 40.6895 298.504 39.1953 295.598 39.1953C293.277 39.1953 291.361 39.9922 289.85 41.5859V56H288.004V43.3789C288.004 40.5898 286.504 39.1953 283.504 39.1953C281.324 39.1953 279.396 39.9922 277.721 41.5859V56H275.875ZM306.391 50.7793C306.391 47.1113 308.828 45.2773 313.703 45.2773C315.426 45.2773 317.266 45.3945 319.223 45.6289V43.3613C319.223 40.5371 317.447 39.125 313.896 39.125C311.998 39.125 310.053 39.418 308.061 40.0039V38.4219C310.053 37.8359 311.998 37.543 313.896 37.543C318.678 37.543 321.068 39.4531 321.068 43.2734V56H319.943L319.521 54.1719C317.213 55.3906 314.975 56 312.807 56C308.529 56 306.391 54.2598 306.391 50.7793ZM313.703 46.8594C310.059 46.8594 308.236 48.1484 308.236 50.7266C308.236 53.1875 309.76 54.418 312.807 54.418C315.057 54.418 317.195 53.8203 319.223 52.625V47.2109C317.266 46.9766 315.426 46.8594 313.703 46.8594ZM329.084 30.8633V32.9727H326.887V30.8633H329.084ZM328.908 37.543V56H327.062V37.543H328.908ZM337.1 30.8633V56H335.254V30.8633H337.1ZM344.588 53.8027V56H342.215V53.8027H344.588ZM362.711 55.4727C361.188 55.8242 359.547 56 357.789 56C351.578 56 348.473 52.8066 348.473 46.4199C348.473 40.502 351.578 37.543 357.789 37.543C359.547 37.543 361.188 37.7188 362.711 38.0703V39.6523C361.07 39.3008 359.488 39.125 357.965 39.125C352.984 39.125 350.494 41.5566 350.494 46.4199C350.494 51.752 352.984 54.418 357.965 54.418C359.488 54.418 361.07 54.2422 362.711 53.8906V55.4727ZM368.002 46.7012C368.002 51.9629 370.258 54.5938 374.77 54.5938C379.281 54.5938 381.537 51.9629 381.537 46.7012C381.537 41.5332 379.281 38.9492 374.77 38.9492C370.258 38.9492 368.002 41.5332 368.002 46.7012ZM366.156 46.7715C366.156 40.502 369.027 37.3672 374.77 37.3672C380.512 37.3672 383.383 40.502 383.383 46.7715C383.383 53.0293 380.512 56.1582 374.77 56.1582C369.051 56.1582 366.18 53.0293 366.156 46.7715ZM388.129 56V37.543H389.447L389.641 39.8633C391.527 38.3164 393.572 37.543 395.775 37.543C398.682 37.543 400.562 38.3867 401.418 40.0742C403.539 38.3867 405.689 37.543 407.869 37.543C411.994 37.543 414.057 39.5879 414.057 43.6777V56H412.211V43.6777C412.211 40.6895 410.758 39.1953 407.852 39.1953C405.531 39.1953 403.615 39.9922 402.104 41.5859V56H400.258V43.3789C400.258 40.5898 398.758 39.1953 395.758 39.1953C393.578 39.1953 391.65 39.9922 389.975 41.5859V56H388.129Z" fill="black"/>
<defs>
<filter id="filter0_d_1_21" x="0" y="0" width="495" height="96" filterUnits="userSpaceOnUse" color-interpolation-filters="sRGB">
<feFlood flood-opacity="0" result="BackgroundImageFix"/>
<feColorMatrix in="SourceAlpha" type="matrix" values="0 0 0 0 0 0 0 0 0 0 0 0 0 0 0 0 0 0 127 0" result="hardAlpha"/>
<feOffset dy="4"/>
<feGaussianBlur stdDeviation="2"/>
<feComposite in2="hardAlpha" operator="out"/>
<feColorMatrix type="matrix" values="0 0 0 0 0 0 0 0 0 0 0 0 0 0 0 0 0 0 0.25 0"/>
<feBlend mode="normal" in2="BackgroundImageFix" result="effect1_dropShadow_1_21"/>
<feBlend mode="normal" in="SourceGraphic" in2="effect1_dropShadow_1_21" result="shape"/>
</filter>
</defs>
</svg>
