<svg width="625" height="611" viewBox="0 0 625 611" fill="none" xmlns="http://www.w3.org/2000/svg">
<g filter="url(#filter0_d_201_741)">
<path d="M13.1771 154.687C-29.7781 -0.969421 129.344 -16.8133 244.177 30.1867C311.177 54.3582 355.177 -20.8133 438.177 9.18666C521.177 39.1867 421.678 133.687 548.678 182.187C675.678 230.687 613.677 447.687 502.677 450.187C391.677 452.687 422.177 489.187 311.177 572.687C200.177 656.187 13.1774 540.187 59.6773 417.687C106.177 295.187 59.6768 323.187 13.1771 154.687Z" stroke="white" stroke-width="3"/>
<path d="M252.075 275.825C247.119 261 270.333 237.083 289 247.29C306.093 256.637 323.5 250.333 335 254.5C365.275 265.47 354.139 271.277 367.673 284.305C384.141 300.16 392 341.675 354.139 341.675C323 341.675 332.317 356.799 309 363.5C285.683 370.201 259.24 358.794 259.24 328.763C259.24 317.485 260.33 300.517 252.075 275.825Z" stroke="white" stroke-width="3"/>
<path d="M34.8921 164.943C-4.60862 22.0898 142.158 5.51197 248.249 49.1672C310.712 71.9909 352.295 3.08013 428.795 30.7317C507.001 59.0017 415.535 145.439 532.22 190.714C649.171 236.246 593.522 437.293 489.171 439.566C385.431 441.838 414.005 476.395 310.976 552.913C207.948 629.432 35.5436 522.94 77.8163 408.846C120.089 296.457 77.915 320.37 34.8921 164.943Z" stroke="white" stroke-width="3"/>
<path d="M56.6072 175.2C20.5609 45.1494 154.973 27.8377 252.321 68.148C310.247 89.6241 349.412 26.974 419.412 52.2771C492.826 78.8171 409.392 157.191 515.762 199.242C622.665 241.806 573.366 426.9 475.664 428.945C379.185 430.991 405.833 463.604 310.775 533.141C215.718 602.677 57.91 505.694 95.9554 400.007C134.001 297.729 96.1533 317.553 56.6072 175.2Z" stroke="white" stroke-width="3"/>
<path d="M78.3225 185.457C45.7306 68.2096 167.787 50.1639 256.393 87.1295C309.782 107.258 346.529 50.8685 410.029 73.8231C478.65 98.6331 403.249 168.944 499.304 207.77C596.159 247.367 553.211 416.507 462.158 418.325C372.938 420.143 397.661 450.814 310.575 513.368C223.488 575.923 80.2765 488.449 114.095 391.167C147.913 299.001 114.392 314.737 78.3225 185.457Z" stroke="white" stroke-width="3"/>
<path d="M100.038 195.715C70.9005 91.2706 180.602 72.491 260.465 106.112C309.317 124.892 343.647 74.7637 400.647 95.3699C464.474 118.45 397.107 180.698 482.846 216.299C569.653 252.928 533.056 406.115 448.652 407.706C366.692 409.297 389.49 438.024 310.374 493.597C231.259 549.17 102.643 471.204 132.234 382.329C161.825 300.273 132.63 311.922 100.038 195.715Z" stroke="white" stroke-width="3"/>
<path d="M121.754 206.493C96.0706 114.851 193.416 95.3377 264.538 125.614C308.853 143.047 340.765 99.1786 391.265 117.436C450.299 138.786 390.964 192.971 466.389 225.348C543.147 259.009 512.901 396.243 435.146 397.607C360.447 398.97 381.318 425.754 310.174 474.345C239.03 522.937 125.01 454.479 150.374 374.01C175.737 302.066 150.869 309.626 121.754 206.493Z" stroke="white" stroke-width="3"/>
<path d="M143.47 217.886C121.241 139.047 206.232 118.799 268.61 145.73C308.389 161.816 337.883 124.208 381.883 140.118C436.124 159.738 384.823 205.859 449.932 235.011C516.642 265.705 492.747 386.985 421.641 388.122C354.201 389.258 373.147 414.099 309.974 455.708C246.801 497.318 147.377 438.369 168.514 366.306C189.65 304.473 169.108 307.945 143.47 217.886Z" stroke="white" stroke-width="3"/>
<path d="M165.186 229.313C146.412 163.276 219.047 142.295 272.684 165.881C307.925 180.619 335.002 149.272 372.502 162.833C421.95 180.723 378.681 218.782 433.475 244.709C490.137 272.435 472.593 377.762 408.136 378.671C347.956 379.58 364.976 402.477 309.775 437.106C254.573 471.734 169.745 422.293 186.654 358.636C203.563 306.914 187.348 306.299 165.186 229.313Z" stroke="white" stroke-width="3"/>
<path d="M186.904 240.789C171.584 187.555 231.864 165.84 276.758 186.081C307.462 199.471 332.121 174.385 363.121 185.598C407.776 201.758 372.541 231.753 417.02 254.456C463.633 279.214 452.44 368.588 394.632 369.27C341.712 369.952 356.807 390.906 309.576 418.552C262.345 446.198 192.114 406.266 204.796 351.016C217.478 309.405 205.589 304.701 186.904 240.789Z" stroke="white" stroke-width="3"/>
<path d="M208.622 252.337C196.757 211.906 244.682 189.457 280.834 206.354C307.001 218.396 329.243 199.571 353.743 208.435C393.604 222.865 366.402 244.797 400.566 264.275C437.131 286.065 432.288 359.487 381.129 359.941C335.47 360.396 348.638 379.406 309.379 400.071C270.12 420.735 214.484 390.312 222.939 343.468C231.393 311.968 223.831 303.176 208.622 252.337Z" stroke="white" stroke-width="3"/>
<path d="M230.345 263.996C221.934 236.368 257.504 213.185 284.913 226.736C306.543 237.431 326.367 224.866 344.367 231.382C379.435 244.082 360.266 257.952 384.115 274.205C410.632 293.027 412.14 350.495 367.63 350.722C329.231 350.95 340.474 368.017 309.185 381.7C277.897 395.383 236.858 374.467 241.085 336.03C245.312 314.641 242.076 301.761 230.345 263.996Z" stroke="white" stroke-width="3"/>
</g>
<defs>
<filter id="filter0_d_201_741" x="0.500092" y="0.500244" width="624.33" height="610.008" filterUnits="userSpaceOnUse" color-interpolation-filters="sRGB">
<feFlood flood-opacity="0" result="BackgroundImageFix"/>
<feColorMatrix in="SourceAlpha" type="matrix" values="0 0 0 0 0 0 0 0 0 0 0 0 0 0 0 0 0 0 127 0" result="hardAlpha"/>
<feOffset dy="4"/>
<feGaussianBlur stdDeviation="2"/>
<feComposite in2="hardAlpha" operator="out"/>
<feColorMatrix type="matrix" values="0 0 0 0 0 0 0 0 0 0 0 0 0 0 0 0 0 0 0.25 0"/>
<feBlend mode="normal" in2="BackgroundImageFix" result="effect1_dropShadow_201_741"/>
<feBlend mode="normal" in="SourceGraphic" in2="effect1_dropShadow_201_741" result="shape"/>
</filter>
</defs>
</svg>
