<svg width="2400" height="960" viewBox="0 0 2400 960" fill="none" xmlns="http://www.w3.org/2000/svg">
<g clip-path="url(#clip0_202_68)">
<rect width="2400" height="960" fill="black"/>
<path d="M-254.586 -225.315C127.051 -81.5542 159.454 -5.33039 -157.378 3.35671C-520.753 21.8609 -488.35 98.0847 -60.1704 232.028C364.42 357.529 396.823 433.753 37.0373 460.7C-182.749 454.296 -150.346 530.52 134.245 689.371C428.256 870.381 460.659 946.605 231.453 918.043C-161.814 909.177 -129.412 985.401 328.661 1146.71" stroke="white" stroke-width="9.71537"/>
<path d="M2180.36 -54.7681C2391.67 -35.9172 2441.77 133.799 2253.93 118.294C2039.08 106.724 2038.92 241.582 2327.49 291.355C2535.88 327.297 2567.78 495.697 2355.65 490.516C2180.14 486.23 2233.18 591.287 2438.18 684.671C2598.23 757.576 2557.92 786.596 2539.91 840.1C2519.33 901.246 2442.23 981.81 2621.77 983.602" stroke="white" stroke-width="9.71537"/>
<path d="M-110.289 -215.735C261.329 -79.3223 294.773 2.40108 -14.4715 9.66506C-369.109 26.4002 -338.622 106.073 81.3457 235.065C493.218 355.298 525.591 436.944 174.491 462.001C-42.6899 455.722 -9.07365 533.642 270.836 688.642C556.967 863.293 585.092 936.74 368.31 913.005C-3.03466 908.258 22.9267 984.737 464.614 1136.67" stroke="#FCFCF4" stroke-width="9.71537"/>
<path d="M33.9993 -206.153C395.597 -77.0872 430.082 10.1358 128.426 15.9767C-217.475 30.9427 -188.903 114.065 222.852 238.106C622.007 353.071 654.35 440.139 311.936 463.305C97.3597 457.151 132.19 536.767 407.417 687.916C685.668 856.208 709.517 926.879 505.157 907.971C155.736 907.342 175.256 984.076 600.559 1126.62" stroke="#F9F9EA" stroke-width="9.71537"/>
<path d="M178.282 -196.566C529.86 -74.8485 565.386 17.8741 271.318 22.2918C-65.8459 35.4888 -39.19 122.06 364.354 241.15C750.79 350.846 783.103 443.336 449.375 464.614C237.404 458.584 273.447 539.896 543.993 687.194C814.363 849.127 833.935 917.02 641.999 902.94C314.5 906.429 327.579 983.419 736.498 1116.58" stroke="#F6F6DF" stroke-width="9.71537"/>
<path d="M322.553 -186.976C664.113 -72.6061 700.68 25.616 414.199 28.6106C85.7725 40.0385 110.513 130.059 505.844 244.197C879.563 348.626 911.846 446.538 586.803 465.925C377.437 460.02 414.694 543.028 680.559 686.475C943.049 842.049 958.344 907.166 778.831 897.913C473.255 905.521 479.892 982.766 872.426 1106.54" stroke="#F3F3D5" stroke-width="9.71537"/>
<path d="M466.817 -177.382C798.357 -70.36 835.965 33.3618 557.072 34.9333C237.382 44.5921 260.207 138.061 647.327 247.249C1008.33 346.409 1040.58 449.743 724.223 467.241C517.462 461.46 555.933 546.164 817.116 685.76C1071.73 834.975 1082.74 897.315 915.654 892.89C632 904.616 632.197 982.116 1008.35 1096.51" stroke="#F0EFCA" stroke-width="9.71537"/>
<path d="M611.068 -167.784C932.588 -68.109 971.238 41.1123 699.932 41.2607C388.98 49.1504 409.889 146.069 788.797 250.305C1137.08 344.197 1169.3 452.953 861.631 468.561C657.475 462.905 697.16 549.305 953.661 685.05C1200.39 827.906 1207.13 887.469 1052.47 887.872C790.734 903.716 784.489 981.471 1144.25 1086.48" stroke="#EDECC0" stroke-width="9.71537"/>
<path d="M755.309 -158.18C1066.81 -65.8533 1106.5 48.8676 842.783 47.5929C540.567 53.7136 559.561 154.081 930.256 253.366C1265.82 341.99 1298.01 456.168 999.029 469.886C797.478 464.355 838.376 552.451 1090.19 684.345C1329.04 820.841 1331.51 877.628 1189.27 882.858C949.457 902.82 936.771 980.831 1280.15 1076.46" stroke="#E9E9B5" stroke-width="9.71537"/>
<path d="M899.538 -148.571C1201.02 -63.5918 1241.75 56.6287 985.621 53.9309C692.142 58.2825 709.22 162.099 1071.7 256.433C1394.55 339.789 1426.71 459.389 1136.41 471.217C937.468 465.81 979.58 555.603 1226.72 683.646C1457.69 813.783 1455.87 867.793 1326.05 877.85C1108.17 901.931 1089.04 980.197 1416.04 1066.44" stroke="#E6E6AB" stroke-width="9.71537"/>
<path d="M1043.75 -138.956C1335.21 -61.3246 1376.98 64.3955 1128.44 60.2745C843.701 62.8571 858.863 170.123 1213.14 259.506C1523.26 337.593 1555.4 462.616 1273.78 472.554C1077.44 467.271 1120.77 558.76 1363.22 682.952C1586.31 806.73 1580.22 857.963 1462.83 872.848C1266.86 901.047 1241.29 979.569 1551.91 1056.43" stroke="#E3E3A0" stroke-width="9.71537"/>
<path d="M1187.95 -129.335C1469.39 -59.0509 1512.21 72.1688 1271.25 66.6247C995.246 67.4382 1008.49 178.153 1354.55 262.584C1651.96 335.404 1684.07 465.849 1411.14 473.897C1217.4 468.739 1261.94 561.923 1499.72 682.264C1714.92 799.684 1704.56 848.14 1599.58 867.852C1425.54 900.17 1393.53 978.947 1687.76 1046.42" stroke="#E0E096" stroke-width="9.71537"/>
<path d="M1332.13 -119.706C1603.55 -56.7696 1647.41 79.9496 1414.04 72.9824C1146.77 72.0268 1158.1 186.19 1495.95 265.671C1780.64 333.222 1812.72 469.089 1548.48 475.247C1357.34 470.214 1403.1 565.095 1636.19 681.585C1843.52 792.645 1828.87 838.325 1736.32 862.864C1584.21 899.3 1545.76 978.332 1823.6 1036.43" stroke="#DDDD8B" stroke-width="9.71537"/>
<path d="M1473.7 -108.969C1735.1 -53.3798 1780 88.839 1554.22 80.4487C1295.69 77.7241 1305.11 195.337 1634.74 269.866C1906.72 332.149 1938.76 473.438 1683.2 477.707C1494.68 472.798 1541.64 569.374 1770.05 682.014C1969.5 786.714 1950.58 829.618 1870.46 858.984C1740.26 899.539 1695.37 978.826 1956.83 1027.54" stroke="#DADA81" stroke-width="9.71537"/>
<path d="M1615.04 -98.1301C1866.42 -49.8887 1912.36 97.8297 1694.17 88.0163C1444.37 83.5226 1451.87 204.584 1773.3 274.163C2032.55 331.177 2064.57 477.888 1817.7 480.267C1631.78 475.483 1679.96 573.756 1903.68 682.544C2095.25 780.885 2072.05 821.012 2004.35 855.206C1896.08 899.879 1844.75 979.422 2089.82 1018.75" stroke="#D7D776" stroke-width="9.71537"/>
<path d="M1756.37 -87.2906C1997.73 -46.3969 2044.71 106.821 1834.11 95.5845C1593.05 89.3218 1598.64 213.833 1911.85 278.46C2158.39 330.206 2190.37 482.339 1952.19 482.828C1768.87 478.169 1818.26 578.137 2037.31 683.074C2221 775.057 2193.52 812.407 2138.24 851.429C2051.89 900.219 1994.12 980.018 2222.81 1009.96" stroke="#D4D36C" stroke-width="9.71537"/>
<path d="M1897.7 -76.4506C2129.05 -42.9045 2177.07 115.813 1974.05 103.153C1741.73 95.1216 1745.4 223.081 2050.4 282.757C2284.22 329.236 2316.18 486.791 2086.68 485.39C1905.96 480.855 1956.57 582.52 2170.94 683.606C2346.74 769.229 2314.99 803.802 2272.14 847.651C2207.71 900.561 2143.49 980.614 2355.8 1001.17" stroke="#D1D061" stroke-width="9.71537"/>
<path d="M2039.03 -65.6096C2260.36 -39.4111 2309.42 124.806 2113.99 110.723C1890.41 100.922 1892.16 232.331 2188.95 287.056C2410.05 328.266 2441.98 491.243 2221.16 487.953C2043.05 483.542 2094.88 586.903 2304.56 684.138C2472.48 763.403 2436.46 795.199 2406.02 843.875C2363.52 900.903 2292.86 981.212 2488.78 992.387" stroke="#CECD57" stroke-width="9.71537"/>
<path d="M-110.289 -215.735C261.329 -79.3223 294.773 2.40108 -14.4715 9.66506C-369.109 26.4002 -338.622 106.073 81.3457 235.065C493.218 355.298 525.591 436.944 174.491 462.001C-42.6899 455.722 -9.07365 533.642 270.836 688.642C556.967 863.293 585.092 936.74 368.31 913.005C-3.03466 908.258 22.9267 984.737 464.614 1136.67" stroke="white" stroke-width="9.71537"/>
<path d="M33.9993 -206.153C395.597 -77.0872 430.082 10.1358 128.426 15.9767C-217.475 30.9427 -188.903 114.065 222.852 238.106C622.007 353.071 654.35 440.139 311.936 463.305C97.3597 457.151 132.19 536.767 407.417 687.916C685.668 856.208 709.517 926.879 505.157 907.971C155.736 907.342 175.256 984.076 600.559 1126.62" stroke="white" stroke-width="9.71537"/>
<path d="M178.282 -196.566C529.86 -74.8485 565.386 17.8741 271.318 22.2918C-65.8459 35.4888 -39.19 122.06 364.354 241.15C750.79 350.846 783.103 443.336 449.375 464.614C237.404 458.584 273.447 539.896 543.993 687.194C814.363 849.127 833.935 917.02 641.999 902.94C314.5 906.429 327.579 983.419 736.498 1116.58" stroke="white" stroke-width="9.71537"/>
<path d="M322.553 -186.976C664.113 -72.6061 700.68 25.616 414.199 28.6106C85.7725 40.0385 110.513 130.059 505.844 244.197C879.563 348.626 911.846 446.538 586.803 465.925C377.437 460.02 414.694 543.028 680.559 686.475C943.049 842.049 958.344 907.166 778.831 897.913C473.255 905.521 479.892 982.766 872.426 1106.54" stroke="white" stroke-width="9.71537"/>
<path d="M466.817 -177.382C798.357 -70.36 835.965 33.3618 557.072 34.9333C237.382 44.5921 260.207 138.061 647.327 247.249C1008.33 346.409 1040.58 449.743 724.223 467.241C517.462 461.46 555.933 546.164 817.116 685.76C1071.73 834.975 1082.74 897.315 915.654 892.89C632 904.616 632.197 982.116 1008.35 1096.51" stroke="white" stroke-width="9.71537"/>
<path d="M611.068 -167.784C932.588 -68.109 971.238 41.1123 699.932 41.2607C388.98 49.1504 409.889 146.069 788.797 250.305C1137.08 344.197 1169.3 452.953 861.631 468.561C657.475 462.905 697.16 549.305 953.661 685.05C1200.39 827.906 1207.13 887.469 1052.47 887.872C790.734 903.716 784.489 981.471 1144.25 1086.48" stroke="white" stroke-width="9.71537"/>
<path d="M755.309 -158.18C1066.81 -65.8533 1106.5 48.8676 842.783 47.5929C540.567 53.7136 559.561 154.081 930.256 253.366C1265.82 341.99 1298.01 456.168 999.029 469.886C797.478 464.355 838.376 552.451 1090.19 684.345C1329.04 820.841 1331.51 877.628 1189.27 882.858C949.457 902.82 936.771 980.831 1280.15 1076.46" stroke="white" stroke-width="9.71537"/>
<path d="M899.538 -148.571C1201.02 -63.5918 1241.75 56.6287 985.621 53.9309C692.142 58.2825 709.22 162.099 1071.7 256.433C1394.55 339.789 1426.71 459.389 1136.41 471.217C937.468 465.81 979.58 555.603 1226.72 683.646C1457.69 813.783 1455.87 867.793 1326.05 877.85C1108.17 901.931 1089.04 980.197 1416.04 1066.44" stroke="white" stroke-width="9.71537"/>
<path d="M1043.75 -138.956C1335.21 -61.3246 1376.98 64.3955 1128.44 60.2745C843.701 62.8571 858.863 170.123 1213.14 259.506C1523.26 337.593 1555.4 462.616 1273.78 472.554C1077.44 467.271 1120.77 558.76 1363.22 682.952C1586.31 806.73 1580.22 857.963 1462.83 872.848C1266.86 901.047 1241.29 979.569 1551.91 1056.43" stroke="white" stroke-width="9.71537"/>
<path d="M1187.95 -129.335C1469.39 -59.0509 1512.21 72.1688 1271.25 66.6247C995.246 67.4382 1008.49 178.153 1354.55 262.584C1651.96 335.404 1684.07 465.849 1411.14 473.897C1217.4 468.739 1261.94 561.923 1499.72 682.264C1714.92 799.684 1704.56 848.14 1599.58 867.852C1425.54 900.17 1393.53 978.947 1687.76 1046.42" stroke="white" stroke-width="9.71537"/>
<path d="M1332.13 -119.706C1603.55 -56.7696 1647.41 79.9496 1414.04 72.9824C1146.77 72.0268 1158.1 186.19 1495.95 265.671C1780.64 333.222 1812.72 469.089 1548.48 475.247C1357.34 470.214 1403.1 565.095 1636.19 681.585C1843.52 792.645 1828.87 838.325 1736.32 862.864C1584.21 899.3 1545.76 978.332 1823.6 1036.43" stroke="white" stroke-width="9.71537"/>
<path d="M1473.7 -108.969C1735.1 -53.3798 1780 88.839 1554.22 80.4487C1295.69 77.7241 1305.11 195.337 1634.74 269.866C1906.72 332.149 1938.76 473.438 1683.2 477.707C1494.68 472.798 1541.64 569.374 1770.05 682.014C1969.5 786.714 1950.58 829.618 1870.46 858.984C1740.26 899.539 1695.37 978.826 1956.83 1027.54" stroke="white" stroke-width="9.71537"/>
<path d="M1615.04 -98.1301C1866.42 -49.8887 1912.36 97.8297 1694.17 88.0163C1444.37 83.5226 1451.87 204.584 1773.3 274.163C2032.55 331.177 2064.57 477.888 1817.7 480.267C1631.78 475.483 1679.96 573.756 1903.68 682.544C2095.25 780.885 2072.05 821.012 2004.35 855.206C1896.08 899.879 1844.75 979.422 2089.82 1018.75" stroke="white" stroke-width="9.71537"/>
<path d="M1756.37 -87.2906C1997.73 -46.3969 2044.71 106.821 1834.11 95.5845C1593.05 89.3218 1598.64 213.833 1911.85 278.46C2158.39 330.206 2190.37 482.339 1952.19 482.828C1768.87 478.169 1818.26 578.137 2037.31 683.074C2221 775.057 2193.52 812.407 2138.24 851.429C2051.89 900.219 1994.12 980.018 2222.81 1009.96" stroke="white" stroke-width="9.71537"/>
<path d="M1897.7 -76.4506C2129.05 -42.9045 2177.07 115.813 1974.05 103.153C1741.73 95.1216 1745.4 223.081 2050.4 282.757C2284.22 329.236 2316.18 486.791 2086.68 485.39C1905.96 480.855 1956.57 582.52 2170.94 683.606C2346.74 769.229 2314.99 803.802 2272.14 847.651C2207.71 900.561 2143.49 980.614 2355.8 1001.17" stroke="white" stroke-width="9.71537"/>
<path d="M2039.03 -65.6096C2260.36 -39.4111 2309.42 124.806 2113.99 110.723C1890.41 100.922 1892.16 232.331 2188.95 287.056C2410.05 328.266 2441.98 491.243 2221.16 487.953C2043.05 483.542 2094.88 586.903 2304.56 684.138C2472.48 763.403 2436.46 795.199 2406.02 843.875C2363.52 900.903 2292.86 981.212 2488.78 992.387" stroke="white" stroke-width="9.71537"/>
</g>
<defs>
<clipPath id="clip0_202_68">
<rect width="2400" height="960" fill="white"/>
</clipPath>
</defs>
</svg>
