<svg width="2400" height="960" viewBox="0 0 2400 960" fill="none" xmlns="http://www.w3.org/2000/svg">
<g clip-path="url(#clip0_202_36)">
<rect width="2400" height="960" fill="black"/>
<path d="M2399.7 -449C2343.3 -429.805 2232.06 -346.203 2238.32 -165.347C2246.14 60.7215 2416.76 202.192 2459.41 415.465C2490.9 572.876 2486.43 967.13 2294.48 1132.77" stroke="white" stroke-width="7.78561"/>
<path d="M2322.87 -402.345C2266.48 -383.15 2155.24 -299.547 2161.5 -118.692C2169.32 107.377 2339.94 248.848 2382.59 462.12C2414.07 619.532 2409.61 1013.79 2217.66 1179.43" stroke="white" stroke-width="7.78561"/>
<path d="M2244.88 -357.658C2188.48 -338.463 2077.25 -254.86 2083.51 -74.0051C2091.33 152.064 2261.94 293.535 2304.6 506.807C2336.08 664.218 2331.61 1058.47 2139.67 1224.11" stroke="white" stroke-width="7.78561"/>
<path d="M2165.8 -314.926C2109.4 -295.731 1998.17 -212.128 2004.43 -31.273C2012.25 194.796 2182.86 336.267 2225.52 549.539C2257 706.951 2252.53 1101.2 2060.59 1266.85" stroke="white" stroke-width="7.78561"/>
<path d="M2085.65 -274.235C2029.25 -255.04 1918.02 -171.437 1924.28 9.41771C1932.1 235.487 2102.71 376.958 2145.37 590.23C2176.85 747.641 2172.38 1141.9 1980.44 1307.54" stroke="white" stroke-width="7.78561"/>
<path d="M2004.43 -235.735C1948.03 -216.541 1836.8 -132.938 1843.05 47.9175C1850.87 273.986 2021.49 415.457 2064.14 628.73C2095.63 786.141 2091.16 1180.4 1899.21 1346.04" stroke="white" stroke-width="7.78561"/>
<path d="M1922.11 -199.637C1865.71 -180.442 1754.47 -96.8393 1760.73 84.0159C1768.55 310.085 1939.17 451.556 1981.82 664.828C2013.31 822.239 2008.84 1216.49 1816.89 1382.14" stroke="white" stroke-width="7.78561"/>
<path d="M1838.66 -166.213C1782.27 -147.018 1671.03 -63.4152 1677.29 117.44C1685.11 343.509 1855.73 484.98 1898.38 698.252C1929.86 855.663 1925.4 1249.92 1733.45 1415.56" stroke="white" stroke-width="7.78561"/>
<path d="M1754.07 -135.811C1697.68 -116.616 1586.44 -33.0134 1592.7 147.842C1600.52 373.911 1771.14 515.382 1813.79 728.654C1845.27 886.065 1840.81 1280.32 1648.86 1445.96" stroke="white" stroke-width="7.78561"/>
<path d="M1668.32 -108.873C1611.92 -89.6784 1500.69 -6.07552 1506.94 174.78C1514.76 400.849 1685.38 542.319 1728.04 755.592C1759.52 913.003 1755.05 1307.26 1563.1 1472.9" stroke="white" stroke-width="7.78561"/>
<path d="M1581.4 -85.957C1525 -66.7625 1413.77 16.8404 1420.03 197.696C1427.85 423.765 1598.46 565.235 1641.12 778.508C1672.6 935.919 1668.13 1330.17 1476.19 1495.81" stroke="white" stroke-width="7.78561"/>
<path d="M1493.37 -67.7729C1436.97 -48.5784 1325.74 35.0245 1332 215.88C1339.82 441.949 1510.43 583.419 1553.09 796.692C1584.57 954.103 1580.1 1348.36 1388.16 1514" stroke="white" stroke-width="7.78561"/>
<path d="M1404.37 -55.2207C1347.97 -36.0262 1236.73 47.5767 1242.99 228.432C1250.81 454.501 1421.43 595.972 1464.08 809.244C1495.57 966.655 1491.1 1360.91 1299.15 1526.55" stroke="white" stroke-width="7.78561"/>
<path d="M1314.67 -49.4291C1258.27 -30.2345 1147.03 53.3683 1153.29 234.223C1161.11 460.292 1331.73 601.763 1374.38 815.036C1405.87 972.447 1401.4 1366.7 1209.45 1532.34" stroke="white" stroke-width="7.78561"/>
<path d="M1224.81 -51.7854C1168.41 -32.5909 1057.18 51.012 1063.43 231.867C1071.25 457.936 1241.87 599.407 1284.53 812.68C1316.01 970.091 1311.54 1364.34 1119.6 1529.99" stroke="white" stroke-width="7.78561"/>
<path d="M1135.74 -63.8915C1079.34 -44.6969 968.109 38.9059 974.365 219.761C982.185 445.83 1152.8 587.301 1195.46 800.574C1226.94 957.985 1222.47 1352.24 1030.53 1517.88" stroke="white" stroke-width="7.78561"/>
<path d="M1048.98 -87.3782C992.577 -68.1836 881.344 15.4192 887.6 196.274C895.42 422.343 1066.04 563.814 1108.69 777.087C1140.17 934.498 1135.71 1328.75 943.762 1494.39" stroke="white" stroke-width="7.78561"/>
<path d="M951.734 -129.82C895.336 -110.625 784.102 -27.0222 790.358 153.833C798.178 379.902 968.796 521.373 1011.45 734.645C1042.93 892.057 1038.47 1286.31 846.52 1451.95" stroke="white" stroke-width="7.78561"/>
<path d="M868.419 -163.559C812.02 -144.365 700.787 -60.7617 707.043 120.093C714.863 346.162 885.481 487.633 928.135 700.906C959.618 858.317 955.15 1252.57 763.205 1418.21" stroke="white" stroke-width="7.78561"/>
<path d="M782.603 -190.3C726.204 -171.106 614.97 -87.5026 621.226 93.3525C629.046 319.421 799.664 460.892 842.319 674.165C873.801 831.576 869.333 1225.83 677.388 1391.47" stroke="white" stroke-width="7.78561"/>
<path d="M694.873 -209.877C638.474 -190.682 527.24 -107.079 533.496 73.7757C541.316 299.845 711.934 441.316 754.589 654.588C786.071 811.999 781.604 1206.25 589.658 1371.9" stroke="white" stroke-width="7.78561"/>
<path d="M605.846 -222.293C549.447 -203.098 438.214 -119.495 444.47 61.3599C452.29 287.429 622.908 428.9 665.563 642.172C697.045 799.583 692.577 1193.84 500.632 1359.48" stroke="white" stroke-width="7.78561"/>
<path d="M516.123 -227.703C459.724 -208.508 348.49 -124.906 354.746 55.9496C362.566 282.019 533.184 423.489 575.839 636.762C607.321 794.173 602.854 1188.43 410.908 1354.07" stroke="white" stroke-width="7.78561"/>
<path d="M426.245 -226.386C369.846 -207.191 258.612 -123.588 264.868 57.2668C272.688 283.336 443.307 424.807 485.961 638.079C517.443 795.49 512.976 1189.74 321.03 1355.39" stroke="white" stroke-width="7.78561"/>
<path d="M336.687 -218.695C280.288 -199.501 169.055 -115.898 175.311 64.9574C183.131 291.026 353.749 432.497 396.403 645.77C427.886 803.181 423.418 1197.43 231.473 1363.08" stroke="white" stroke-width="7.78561"/>
<path d="M247.846 -205.025C191.447 -185.831 80.2135 -102.228 86.4695 78.6272C94.2895 304.696 264.908 446.167 307.562 659.44C339.044 816.851 334.577 1211.1 142.631 1376.75" stroke="white" stroke-width="7.78561"/>
<path d="M160.045 -185.77C103.646 -166.576 -7.58753 -82.973 -1.33153 97.8822C6.48847 323.951 177.107 465.422 219.761 678.695C251.243 836.106 246.776 1230.36 54.8303 1396" stroke="white" stroke-width="7.78561"/>
<path d="M73.554 -161.293C17.1553 -142.098 -94.0782 -58.4953 -87.8223 122.36C-80.0023 348.429 90.6159 489.9 133.27 703.172C164.753 860.583 160.285 1254.84 -31.6604 1420.48" stroke="white" stroke-width="7.78561"/>
<path d="M-11.3706 -131.9C-67.7693 -112.705 -179.003 -29.1023 -172.747 151.753C-164.927 377.822 5.6913 519.293 48.3458 732.565C79.828 889.976 75.3603 1284.23 -116.585 1449.87" stroke="white" stroke-width="7.78561"/>
</g>
<defs>
<clipPath id="clip0_202_36">
<rect width="2400" height="960" fill="white"/>
</clipPath>
</defs>
</svg>
